<svg id="Layer_1" data-name="Layer 1" xmlns="http://www.w3.org/2000/svg" viewBox="0 0 32 32"><defs><style>.cls-1{fill:none;stroke:#a9a9a9;stroke-miterlimit:10;stroke-width:2px;}</style></defs><path class="cls-1" d="M22.5,22.28v4.44c0,2.36-2.32,4.28-5.19,4.28H14.19C11.32,31,9,29.08,9,26.72V22"/><path class="cls-1" d="M9.5,9V5.69A4.85,4.85,0,0,1,14.5,1h3a4.85,4.85,0,0,1,5,4.69v4.75"/><path class="cls-1" d="M10,22.5H5.69A4.85,4.85,0,0,1,1,17.5v-3a4.85,4.85,0,0,1,4.69-5h4.83"/><path class="cls-1" d="M22.27,9.43h3.31A5.32,5.32,0,0,1,31,14.65v3.13A5.33,5.33,0,0,1,25.58,23H21.52"/></svg>